<svg width="44" height="33" viewBox="0 0 44 33" fill="none" xmlns="http://www.w3.org/2000/svg">
<path d="M26.6354 0.463679C27.3347 -0.139519 28.6796 -0.0947011 29.4895 0.259167C30.1582 0.657506 30.6922 1.2732 30.9273 2.0081C31.0333 3.00381 30.9059 3.76646 30.2764 4.56802C29.7933 5.08376 29.3371 5.35057 28.6245 5.43587C27.8178 5.46438 27.2563 5.36676 26.5782 4.94178C26.4263 4.8652 26.2739 4.78961 26.1204 4.71612C26.1062 4.79538 26.092 4.87466 26.0774 4.95633C26.0016 5.29978 25.8956 5.61865 25.7775 5.95024L25.6409 6.34119C25.5468 6.60853 25.4521 6.87565 25.3566 7.14249C24.562 9.42986 24.4401 11.8867 25.2048 14.1942C25.2305 14.2723 25.2561 14.3503 25.2826 14.4308C25.4072 14.808 25.5352 15.1834 25.668 15.5579C25.777 15.8867 25.777 15.8867 25.777 16.1124H26.0059L26.0882 15.8206C26.2512 15.3925 26.4768 15.0523 26.7499 14.6878C26.8003 14.6196 26.8507 14.5514 26.9027 14.4811C28.3558 12.5367 30.0199 10.9822 32.3007 10.0193L32.6691 9.85272C33.7475 9.43902 34.8022 9.40403 35.9489 9.40579C36.0257 9.40576 36.1025 9.4057 36.1817 9.40568C37.0877 9.40881 37.945 9.46122 38.8245 9.68082C39.2449 9.79946 39.245 9.79947 39.6256 9.79365C39.9284 9.5422 39.9284 9.54216 40.1979 9.22948C40.8257 8.79171 41.5176 8.77819 42.258 8.89098C42.9798 9.17388 43.5118 9.55787 43.8603 10.245C44.0561 10.8873 44.0434 11.498 43.8388 12.135C43.4819 12.766 42.9652 13.2843 42.258 13.5172C41.4973 13.6305 40.8461 13.627 40.1836 13.2139C39.8307 12.944 39.5715 12.6896 39.3967 12.276V12.0503C38.7912 12.3723 38.2617 12.7352 37.73 13.1646C37.6115 13.2602 37.6114 13.2603 37.4905 13.3578C35.0284 15.377 32.9374 17.9436 32.1863 21.0771L32.1152 21.3693C31.6777 23.5853 31.7912 26.1584 32.5296 28.2985C32.544 28.6228 32.544 28.6229 32.5296 28.8626L32.9302 28.8344C33.5667 28.8367 34.0787 29.0502 34.5415 29.4828C34.9943 29.9972 35.0884 30.4216 35.0798 31.0801C35.0125 31.6339 34.7279 32.0023 34.3251 32.3887C33.6504 32.8218 33.0985 32.975 32.2971 32.9692C32.2078 32.9699 32.1185 32.9706 32.0266 32.9713C31.7294 32.9731 31.4322 32.9726 31.135 32.972C30.9212 32.9729 30.7074 32.9738 30.4936 32.9749C29.914 32.9774 29.3344 32.9778 28.7548 32.9776C28.2704 32.9775 27.7861 32.9785 27.3018 32.9794C26.1588 32.9816 25.0158 32.9819 23.8728 32.9812C22.6949 32.9804 21.5169 32.9831 20.3389 32.9872C19.3265 32.9907 18.3141 32.992 17.3016 32.9915C16.6974 32.9913 16.0932 32.9919 15.489 32.9946C14.9206 32.9971 14.3523 32.9969 13.7839 32.9946C13.5758 32.9942 13.3677 32.9949 13.1596 32.9965C11.0229 33.012 11.0228 33.0119 10.1434 32.1897C9.67012 31.6749 9.59359 31.2493 9.60905 30.5644C9.67886 30.025 9.92784 29.6857 10.3288 29.34C10.8968 28.9319 11.2178 28.8487 11.9285 28.8626C11.9403 28.1467 11.9482 27.4306 11.9536 26.7146C11.9559 26.472 11.959 26.2294 11.963 25.9869C12.0117 22.9662 11.4388 20.3955 9.63946 17.9177C9.55672 17.8034 9.55666 17.8034 9.47225 17.6869C9.2959 17.4453 9.11775 17.2051 8.93844 16.9657C8.88368 16.8923 8.82889 16.8189 8.77247 16.7433C8.43443 16.3014 8.07155 15.9106 7.66942 15.5248C7.38706 15.2457 7.12881 14.9483 6.8676 14.65C6.52316 14.2612 6.1641 13.8861 5.80535 13.5101L5.58852 13.2816C5.37577 13.0582 5.16163 12.8361 4.94697 12.6145C4.87396 12.5381 4.80088 12.4617 4.72567 12.383C4.65512 12.3108 4.58464 12.2385 4.51196 12.1641C4.44892 12.0989 4.38579 12.0338 4.32084 11.9667C4.14391 11.7935 4.14394 11.7934 3.83822 11.8176C3.58004 11.9292 3.57999 11.9293 3.37237 12.0543C2.82191 12.2878 2.21143 12.24 1.62789 12.1632C0.946608 11.8825 0.47884 11.4494 0.140026 10.8092C-0.0568934 10.1677 -0.0428247 9.55527 0.161486 8.91919C0.518193 8.28863 1.04049 7.76761 1.74234 7.53697C2.63463 7.4312 3.27527 7.51784 4.02376 8.02004C4.45414 8.37297 4.76539 8.77982 4.83252 9.34232C4.83632 9.64324 4.83375 9.94403 4.83252 10.245L5.20761 10.2952C8.55516 10.7672 12.2795 11.4889 14.9042 13.7429L15.1192 13.9103C15.6358 14.3195 16.0156 14.7868 16.3921 15.3225C16.4851 14.9913 16.5319 14.675 16.5597 14.3326L16.5868 14.0223C16.6047 13.8087 16.6223 13.5951 16.6395 13.3814C16.6885 12.8272 16.7665 12.3497 16.9643 11.8247C16.994 11.6489 17.0202 11.4725 17.043 11.2958C17.4402 9.0957 18.5592 7.0684 20.1689 5.50596L20.4394 5.23974C21.6793 4.07782 23.3847 3.10665 25.1476 3.10118L25.5481 3.13644L25.5361 2.91738C25.5102 2.10369 25.6017 1.53254 26.1776 0.907963L26.4637 0.654087L26.6354 0.463679ZM32.3381 30.1744C32.0533 30.173 31.7686 30.172 31.4838 30.1732C31.2749 30.1742 31.0659 30.1745 30.857 30.1742C30.2884 30.1727 29.7198 30.1726 29.1512 30.174C28.5465 30.1756 27.9417 30.1759 27.3369 30.1756C26.325 30.1753 25.3131 30.176 24.3011 30.178C23.1215 30.1804 21.9419 30.1817 20.7622 30.181C19.6197 30.1804 18.4771 30.1805 17.3346 30.1817C16.8502 30.1822 16.3659 30.1827 15.8815 30.1826C15.3007 30.1823 14.7199 30.1824 14.1391 30.1839C13.9256 30.1846 13.7121 30.1852 13.4986 30.1857C13.2002 30.1852 12.9018 30.1847 12.6034 30.1859C12.512 30.1863 12.4232 30.1868 12.3344 30.1872C11.7736 30.1843 11.2711 30.1146 11.0129 30.7032C11.0129 31.0065 11.0128 31.0065 11.2438 31.3031C11.5947 31.5781 11.7777 31.6373 12.22 31.645C12.3042 31.6436 12.3859 31.6423 12.4676 31.6408C12.7492 31.6431 13.0305 31.6445 13.3121 31.6425C13.5183 31.6409 13.7246 31.6402 13.9309 31.6406C14.4928 31.6429 15.0545 31.6431 15.6164 31.6406C16.2139 31.6379 16.8115 31.6373 17.409 31.6375C18.4092 31.638 19.4094 31.6367 20.4096 31.6332C21.575 31.6291 22.7404 31.6264 23.9058 31.6272C25.035 31.6279 26.1642 31.6276 27.2934 31.6254C27.7721 31.6245 28.2507 31.6235 28.7294 31.6235C29.3031 31.6238 29.8768 31.6234 30.4504 31.6209C30.6615 31.6198 30.8727 31.6189 31.0838 31.618C31.3784 31.6186 31.673 31.6191 31.9676 31.6173C32.0581 31.6166 32.146 31.6159 32.2338 31.6152C32.6548 31.6183 33.0006 31.6252 33.3796 31.4211C33.6187 31.1702 33.6187 31.1702 33.6742 30.5551C33.3324 30.2279 33.0597 30.1769 32.5897 30.1719C32.5041 30.1728 32.4211 30.1736 32.3381 30.1744ZM17.5366 25.4776C17.2008 25.804 16.8654 26.1308 16.5307 26.4583C16.3939 26.5922 16.2571 26.726 16.1202 26.8598C15.9182 27.0561 15.7162 27.2525 15.515 27.4496C15.4499 27.5134 15.3867 27.5754 15.3236 27.6373C14.9569 27.9919 14.6804 28.2884 14.4464 28.7498H20.9701C20.9701 28.6239 20.9701 28.6238 20.5282 28.1826C20.4626 28.1179 20.3989 28.055 20.3353 27.9921C20.2018 27.8598 20.0683 27.7275 19.9347 27.5952C19.7228 27.3864 19.5111 27.1774 19.3003 26.9675C19.1632 26.8309 19.0258 26.6947 18.8882 26.5587C18.8208 26.4922 18.7554 26.4276 18.69 26.3631C18.3359 26.0094 18.0154 25.6625 17.5366 25.4776ZM26.8071 25.4776C26.3203 26.0553 25.7985 26.5887 25.2549 27.1137C24.7124 27.6281 24.291 28.1457 23.8314 28.7498H30.2406C30.2406 28.5242 30.2406 28.5241 30.1061 28.3781C29.9415 28.2264 29.7817 28.0695 29.6239 27.9108C29.4009 27.6864 29.1776 27.4624 28.9537 27.2389C28.8318 27.1173 28.71 26.9957 28.5882 26.8739C28.4079 26.6918 28.2275 26.5098 28.0459 26.3289C27.9873 26.2706 27.9303 26.2139 27.8734 26.1573C27.5352 25.8182 27.3014 25.532 26.8071 25.4776ZM18.4522 24.1236C18.4522 24.3493 18.4521 24.3493 18.5881 24.5128C18.6537 24.578 18.7174 24.6412 18.7811 24.7045C18.8551 24.7786 18.927 24.8506 18.9988 24.9225C19.1192 25.041 19.1192 25.041 19.2372 25.1572C19.402 25.3206 19.5668 25.4839 19.7317 25.6471C19.9936 25.9045 20.2552 26.162 20.5153 26.4212C20.6846 26.5899 20.8542 26.7583 21.0243 26.9263C21.1074 27.0081 21.1881 27.0876 21.2687 27.167C21.3489 27.2471 21.4266 27.3248 21.5044 27.4025C21.6165 27.512 21.6165 27.5119 21.7264 27.6192C21.9943 27.8836 22.1873 28.0358 22.5724 28.0728C22.7027 27.9443 22.8308 27.8132 22.9506 27.6752C23.4331 27.1144 23.9487 26.5934 24.4777 26.0758C24.5355 26.0195 24.5917 25.9647 24.6477 25.91C24.7569 25.8032 24.8662 25.6967 24.9759 25.5904C25.4712 25.1273 25.4713 25.1273 26.2348 24.1236H18.4522ZM13.4163 27.7343C13.7075 27.4473 13.9987 27.1603 14.2916 26.875C14.5158 26.657 14.7398 26.4387 14.9634 26.2201C15.0843 26.1018 15.2053 25.9836 15.3262 25.8655C15.5081 25.6891 15.6899 25.5127 15.8709 25.3355C15.9294 25.2781 15.9862 25.2225 16.0429 25.1669C16.4051 24.8139 16.62 24.5769 16.8499 24.1236H13.4163V27.7343ZM27.7227 24.1236C27.7227 24.2364 27.7227 24.2364 27.8948 24.4132C28.3079 24.8081 28.7032 25.2063 29.0747 25.6398C29.2629 25.865 29.2629 25.865 29.4395 26.0418C29.5562 26.0801 29.5295 26.1967 29.6428 26.2339C29.6428 26.3107 29.7828 26.3058 29.7828 26.3803C29.8996 26.4186 29.9873 26.5916 30.1006 26.6289C30.1395 26.7439 30.2029 26.7199 30.2406 26.8316C30.4767 26.9656 30.4767 26.9656 30.6984 27.0573C30.6183 26.3579 30.563 25.6582 30.5196 24.9557L30.4695 24.1236H27.7227ZM24.747 4.60328C23.2343 4.60328 21.6265 5.72787 20.7001 6.85247L20.5123 7.08563C19.4387 8.27276 18.7385 9.81973 18.389 11.3669C18.3716 11.4458 18.3547 11.5224 18.3377 11.599C17.8158 13.8126 17.8158 13.8126 17.7687 18.5515L17.7655 18.9332C17.4993 18.9762 17.2321 19.0136 16.9643 19.0461C16.8135 18.9093 16.8135 18.9093 16.6666 18.5709C16.3707 17.9697 16.0671 17.3731 15.7478 16.7836C14.4398 14.6021 12.3068 13.3704 9.8925 12.684C9.78944 12.6556 9.68942 12.628 9.58938 12.6004C8.85484 12.3958 8.12554 12.2018 7.37055 12.0843L7.12153 12.0503C6.85464 12.0108 6.58793 11.9727 6.32038 11.9375C6.32038 12.0626 6.32032 12.0626 6.7679 12.5359C7.22156 13.0123 7.67464 13.4887 8.10867 13.9826C8.32227 14.2269 8.53876 14.4664 8.7614 14.7028C9.35957 15.3378 9.91105 15.9879 10.4299 16.6876L10.6695 17.015C11.7294 18.4176 12.4903 19.9714 12.9163 21.673C12.9462 21.7949 12.9462 21.795 12.9755 21.9145C13.016 22.0768 13.0564 22.2391 13.0968 22.4014C13.1276 22.5266 13.1575 22.6481 13.1874 22.7696C15.3356 22.7721 17.4839 22.7741 19.6321 22.7753C20.6761 22.7759 21.7201 22.7765 22.7641 22.7777C23.6814 22.7789 24.5987 22.7798 25.516 22.7802C26 22.7803 26.4841 22.7803 26.9682 22.781C27.4319 22.7818 27.8955 22.7825 28.3592 22.7825C28.5295 22.7824 28.6998 22.7823 28.8701 22.7824C29.0329 22.7828 29.1957 22.7833 29.3586 22.7837C29.5085 22.7835 29.6541 22.7833 29.7997 22.7831C30.023 22.7833 30.2465 22.7805 30.4695 22.7696C30.5943 22.6466 30.5943 22.6465 30.6927 21.9992C31.305 17.9603 33.638 14.6738 36.8287 12.1561C37.3325 11.7658 37.8089 11.3791 38.2522 10.922C37.7311 10.7866 37.2247 10.7016 36.6856 10.6774C33.9579 10.6638 31.686 11.4454 29.6684 13.2915V13.5172H29.4395C28.4137 14.584 27.564 15.8407 26.8786 17.142C26.7041 17.4841 26.5324 17.821 26.3091 18.1355C25.8942 18.2984 25.8942 18.2984 25.4337 18.2562C24.8733 17.142 24.323 16.0361 23.953 14.8443L23.8314 14.4199C23.0094 11.7293 23.2407 9.08194 24.1511 6.45689C24.366 5.84339 24.5657 5.22735 24.747 4.60328ZM41.8073 10.1908C41.3538 10.1594 41.1519 10.219 40.7701 10.4777C40.4806 10.8969 40.4511 11.1012 40.5412 11.599C40.7687 11.9284 40.9339 12.1193 41.3352 12.2174C41.7887 12.2487 41.9906 12.1892 42.3724 11.9305C42.6619 11.5112 42.6915 11.3069 42.6013 10.8092C42.3738 10.4797 42.2086 10.2889 41.8073 10.1908ZM2.6651 8.83677C2.21159 8.80544 2.00966 8.86495 1.62789 9.1237C1.33836 9.54294 1.30882 9.74721 1.39899 10.245C1.6265 10.5744 1.79172 10.7653 2.19299 10.8634C2.6465 10.8947 2.84842 10.8352 3.2302 10.5764C3.51971 10.1572 3.54927 9.95293 3.4591 9.45515C3.2316 9.12573 3.06635 8.93487 2.6651 8.83677ZM28.1447 1.40161C27.8875 1.41147 27.6806 1.37262 27.4938 1.55676C27.2005 1.77537 27.2005 1.7754 26.9216 2.12093C26.8281 2.51543 26.8362 2.85374 26.9216 3.24927C27.0867 3.60649 27.2677 3.83292 27.6083 4.03911C28.1131 4.14553 28.5608 4.16 29.004 3.88088C29.326 3.59985 29.5318 3.33928 29.579 2.90724C29.5872 2.34555 29.5469 2.12215 29.1605 1.71191C28.8263 1.4387 28.5752 1.40405 28.1447 1.40161Z" fill="#070707"/>
</svg>
