<svg width="25" height="24" viewBox="0 0 25 24" fill="none" xmlns="http://www.w3.org/2000/svg">
<path d="M20.8438 3.2625C20.6428 3.12448 20.4111 3.03772 20.169 3.00977C19.9268 2.98183 19.6815 3.01356 19.4544 3.10219C18.1391 3.61406 15.4831 4.47281 12.5 4.47281C9.51688 4.47281 6.86 3.61406 5.54281 3.10219C5.31555 3.01397 5.0702 2.98247 4.82803 3.01042C4.58585 3.03837 4.35413 3.12493 4.15293 3.26259C3.95174 3.40026 3.78713 3.5849 3.67336 3.80051C3.55959 4.01612 3.50009 4.25621 3.5 4.5V9.72844C3.5 13.0884 4.40469 16.2581 6.04813 18.6516C7.75063 21.1322 10.0419 22.4953 12.5 22.4953C14.9581 22.4953 17.2494 21.1294 18.9519 18.6516C20.5953 16.26 21.5 13.0903 21.5 9.73031V4.5C21.4996 4.2559 21.4396 4.0156 21.3252 3.79994C21.2108 3.58429 21.0456 3.39981 20.8438 3.2625ZM20 9.73125C20 12.7913 19.1881 15.6591 17.7153 17.8059C16.3006 19.8656 14.4491 21 12.5 21C10.5509 21 8.69938 19.8656 7.28469 17.805C5.81188 15.6562 5 12.7903 5 9.73031V4.5C6.41656 5.05031 9.27313 5.97281 12.5 5.97281C15.7269 5.97281 18.5844 5.05031 20 4.5V9.73219V9.73125ZM18.3125 11.5003C18.445 11.6495 18.5129 11.8452 18.5011 12.0444C18.4893 12.2436 18.3989 12.43 18.2497 12.5625C18.1005 12.695 17.9048 12.7629 17.7056 12.7511C17.5064 12.7393 17.32 12.6489 17.1875 12.4997C16.9362 12.2184 16.3578 12 15.875 12C15.3922 12 14.81 12.2194 14.5625 12.4997C14.4299 12.6489 14.2434 12.7393 14.0441 12.7509C13.8448 12.7626 13.649 12.6947 13.4998 12.562C13.3507 12.4294 13.2603 12.2429 13.2486 12.0436C13.2369 11.8443 13.3049 11.6486 13.4375 11.4994C13.9728 10.9013 14.9506 10.5 15.875 10.5C16.7994 10.5 17.7734 10.9013 18.3125 11.4994V11.5003ZM9.125 12C8.63844 12 8.06 12.2194 7.8125 12.4997C7.67985 12.6489 7.49337 12.7393 7.29408 12.7509C7.0948 12.7626 6.89903 12.6947 6.74984 12.562C6.60066 12.4294 6.51028 12.2429 6.49859 12.0436C6.4869 11.8443 6.55485 11.6486 6.6875 11.4994C7.22656 10.9013 8.20438 10.5 9.125 10.5C10.0456 10.5 11.0234 10.9013 11.5625 11.4994C11.6951 11.6486 11.7631 11.8443 11.7514 12.0436C11.7397 12.2429 11.6493 12.4294 11.5002 12.562C11.4263 12.6277 11.3402 12.6782 11.2468 12.7106C11.1534 12.743 11.0546 12.7567 10.9559 12.7509C10.7566 12.7393 10.5701 12.6489 10.4375 12.4997C10.19 12.2194 9.61156 12 9.125 12ZM16.2922 16.2366C15.8267 16.7889 15.2461 17.2329 14.5911 17.5375C13.936 17.8421 13.2224 17.9999 12.5 17.9999C11.7776 17.9999 11.064 17.8421 10.4089 17.5375C9.75392 17.2329 9.17334 16.7889 8.70781 16.2366C8.64386 16.1616 8.59528 16.0749 8.56486 15.9812C8.53444 15.8875 8.52277 15.7887 8.53052 15.6905C8.53826 15.5923 8.56528 15.4966 8.61001 15.4089C8.65475 15.3211 8.71634 15.243 8.79125 15.1791C8.86617 15.1151 8.95294 15.0665 9.04663 15.0361C9.14032 15.0057 9.23908 14.994 9.33728 15.0018C9.43548 15.0095 9.53119 15.0365 9.61895 15.0813C9.70671 15.126 9.78479 15.1876 9.84875 15.2625C10.1734 15.65 10.579 15.9617 11.037 16.1755C11.4951 16.3894 11.9945 16.5002 12.5 16.5002C13.0055 16.5002 13.5049 16.3894 13.963 16.1755C14.421 15.9617 14.8266 15.65 15.1512 15.2625C15.2152 15.1876 15.2933 15.126 15.3811 15.0813C15.4688 15.0365 15.5645 15.0095 15.6627 15.0018C15.7609 14.994 15.8597 15.0057 15.9534 15.0361C16.0471 15.0665 16.1338 15.1151 16.2087 15.1791C16.2837 15.243 16.3452 15.3211 16.39 15.4089C16.4347 15.4966 16.4617 15.5923 16.4695 15.6905C16.4772 15.7887 16.4656 15.8875 16.4351 15.9812C16.4047 16.0749 16.3561 16.1616 16.2922 16.2366Z" fill="#F2BF59"/>
</svg>
